#N canvas 458 449 450 300 10;
#X obj 43 101 hid;
#X msg 86 85 print;
#X obj 40 35 loadbang;
#X obj 227 129 print;
#X msg 107 66 close;
#X msg 39 64 open 9 \, 1;
#X obj 43 126 route key;
#X obj 43 216 sel 1;
#X obj 43 240 s 1-buzz;
#X obj 102 216 sel 1;
#X obj 102 240 s 2-buzz;
#X obj 43 161 route ff_76 ff_periodic ff_inertia ff_saw_up;
#X obj 163 213 sel 1;
#X obj 243 208 sel 1;
#X obj 163 237 s 3-buzz;
#X obj 243 232 s 4-buzz;
#X connect 0 0 6 0;
#X connect 1 0 0 0;
#X connect 2 0 5 0;
#X connect 4 0 0 0;
#X connect 5 0 0 0;
#X connect 6 0 3 0;
#X connect 6 0 11 0;
#X connect 7 0 8 0;
#X connect 9 0 10 0;
#X connect 11 0 7 0;
#X connect 11 1 9 0;
#X connect 11 2 12 0;
#X connect 11 3 13 0;
#X connect 12 0 14 0;
#X connect 13 0 15 0;
