#N canvas 343 79 450 300 10;
#N canvas 64 204 450 399 gemwin 1;
#X obj 37 287 gemwin;
#X msg 37 48 create \, 1;
#X obj 37 25 t b b;
#X obj 37 2 r start-gem;
#X msg 333 270 destroy;
#X obj 333 249 r end-gem;
#X msg 331 227 dimen 1366 768;
#X obj 64 221 pack f f;
#X msg 64 252 dimen \$1 \$2;
#X obj 64 194 f;
#X obj 109 193 f;
#X obj 189 11 loadbang;
#X msg 221 37 384;
#X msg 189 37 683;
#X obj 221 84 s win-y;
#X obj 189 63 s win-x;
#X obj 79 142 r win-x;
#X obj 124 168 r win-y;
#X obj 64 79 t b b;
#X connect 1 0 0 0;
#X connect 2 0 1 0;
#X connect 2 1 18 0;
#X connect 3 0 2 0;
#X connect 4 0 0 0;
#X connect 5 0 4 0;
#X connect 6 0 0 0;
#X connect 7 0 8 0;
#X connect 8 0 0 0;
#X connect 9 0 7 0;
#X connect 10 0 7 1;
#X connect 11 0 13 0;
#X connect 11 0 12 0;
#X connect 12 0 14 0;
#X connect 13 0 15 0;
#X connect 16 0 9 1;
#X connect 17 0 10 1;
#X connect 18 0 9 0;
#X connect 18 1 10 0;
#X restore 26 24 pd gemwin;
#N canvas 212 307 450 419 timer-display 1;
#X obj 49 147 gemhead;
#X obj 49 224 colourRGB 1 1 1;
#X obj 49 357 text2d;
#X msg 227 145 font font/VeraMono.ttf;
#X obj 227 109 loadbang;
#X obj 227 225 s timer-disp;
#X obj 66 247 r timer-disp;
#X msg 240 170 text 60;
#X obj 82 311 loadbang;
#X msg 82 334 150;
#X obj 49 170 translateXYZ 0 3 0;
#X msg 248 200 justify center center;
#X connect 0 0 10 0;
#X connect 1 0 2 0;
#X connect 3 0 5 0;
#X connect 4 0 3 0;
#X connect 4 0 7 0;
#X connect 4 0 11 0;
#X connect 6 0 2 0;
#X connect 7 0 5 0;
#X connect 8 0 9 0;
#X connect 9 0 2 1;
#X connect 10 0 1 0;
#X connect 11 0 5 0;
#X restore 28 60 pd timer-display;
#N canvas 92 326 450 300 topic-display 1;
#X obj 43 50 gemhead;
#X obj 43 127 colourRGB 1 1 1;
#X obj 43 260 text2d;
#X msg 221 48 font font/VeraMono.ttf;
#X obj 221 12 loadbang;
#X msg 234 73 text 60;
#X obj 76 214 loadbang;
#X obj 43 74 translateXYZ 0 0.5 0;
#X obj 221 128 s topic-disp;
#X obj 60 150 r topic-disp;
#X msg 76 236 40;
#X msg 242 103 justify center center;
#X connect 0 0 7 0;
#X connect 1 0 2 0;
#X connect 3 0 8 0;
#X connect 4 0 3 0;
#X connect 4 0 5 0;
#X connect 4 0 11 0;
#X connect 5 0 8 0;
#X connect 6 0 10 0;
#X connect 7 0 1 0;
#X connect 9 0 2 0;
#X connect 10 0 2 1;
#X connect 11 0 8 0;
#X restore 30 96 pd topic-display;
