#N canvas 337 89 450 300 10;
#N canvas 60 206 674 399 gemwin 1;
#X obj 37 316 gemwin;
#X msg 37 48 create \, 1;
#X obj 37 25 t b b;
#X obj 37 2 r start-gem;
#X msg 333 270 destroy;
#X obj 333 249 r end-gem;
#X obj 64 221 pack f f;
#X msg 64 252 dimen \$1 \$2;
#X obj 64 194 f;
#X obj 109 193 f;
#X obj 189 38 loadbang;
#X msg 221 64 384;
#X msg 189 64 683;
#X obj 221 111 s win-y;
#X obj 189 90 s win-x;
#X obj 79 142 r win-x;
#X obj 124 168 r win-y;
#X obj 64 79 t b b;
#X obj 325 112 s win-y;
#X obj 293 91 s win-x;
#X text 171 9 quarter of screen;
#X text 294 11 Full screen;
#X msg 293 65 1366;
#X msg 325 65 768;
#X obj 293 38 bng 15 250 50 0 empty empty empty 17 7 0 10 -262144 -1
-1;
#X obj 333 291 s gemwin;
#X obj 125 280 r gemwin;
#X obj 440 118 s win-y;
#X obj 408 97 s win-x;
#X msg 408 71 1366;
#X msg 440 71 768;
#X obj 408 44 bng 15 250 50 0 empty empty empty 17 7 0 10 -262144 -1
-1;
#X msg 498 64 border 0;
#X msg 561 62 offset 1366 0;
#X obj 500 103 s gemwin;
#X obj 435 238 s win-y;
#X obj 403 217 s win-x;
#X obj 403 164 bng 15 250 50 0 empty empty empty 17 7 0 10 -262144
-1 -1;
#X text 404 137 hd on right;
#X msg 493 184 border 0;
#X msg 556 182 offset 1366 0;
#X obj 495 223 s gemwin;
#X text 409 17 this res on right;
#X msg 403 191 1920;
#X msg 435 191 1080;
#X connect 1 0 0 0;
#X connect 2 0 1 0;
#X connect 2 1 17 0;
#X connect 3 0 2 0;
#X connect 4 0 25 0;
#X connect 5 0 4 0;
#X connect 6 0 7 0;
#X connect 7 0 0 0;
#X connect 8 0 6 0;
#X connect 9 0 6 1;
#X connect 10 0 12 0;
#X connect 10 0 11 0;
#X connect 11 0 13 0;
#X connect 12 0 14 0;
#X connect 15 0 8 1;
#X connect 16 0 9 1;
#X connect 17 0 8 0;
#X connect 17 1 9 0;
#X connect 22 0 19 0;
#X connect 23 0 18 0;
#X connect 24 0 22 0;
#X connect 24 0 23 0;
#X connect 26 0 0 0;
#X connect 29 0 28 0;
#X connect 30 0 27 0;
#X connect 31 0 29 0;
#X connect 31 0 30 0;
#X connect 31 0 33 0;
#X connect 31 0 32 0;
#X connect 32 0 34 0;
#X connect 33 0 34 0;
#X connect 37 0 43 0;
#X connect 37 0 44 0;
#X connect 37 0 40 0;
#X connect 37 0 39 0;
#X connect 39 0 41 0;
#X connect 40 0 41 0;
#X connect 43 0 36 0;
#X connect 44 0 35 0;
#X restore 26 24 pd gemwin;
#N canvas 501 288 450 419 timer-display 0;
#X obj 49 147 gemhead;
#X obj 49 224 colourRGB 1 1 1;
#X obj 49 357 text2d;
#X msg 227 145 font font/VeraMono.ttf;
#X obj 227 109 loadbang;
#X obj 227 225 s timer-disp;
#X obj 66 247 r timer-disp;
#X msg 240 170 text 60;
#X msg 248 200 justify center center;
#X obj 90 279 r win-y;
#X obj 87 308 f;
#X obj 86 330 / 2;
#X obj 49 170 translateXYZ 0 2.8 0;
#X connect 0 0 12 0;
#X connect 1 0 2 0;
#X connect 3 0 5 0;
#X connect 4 0 3 0;
#X connect 4 0 7 0;
#X connect 4 0 8 0;
#X connect 6 0 2 0;
#X connect 7 0 5 0;
#X connect 8 0 5 0;
#X connect 9 0 10 0;
#X connect 10 0 11 0;
#X connect 11 0 2 1;
#X connect 12 0 1 0;
#X restore 28 60 pd timer-display;
#N canvas 496 390 450 300 topic-display 0;
#X obj 43 50 gemhead;
#X obj 43 127 colourRGB 1 1 1;
#X obj 43 260 text2d;
#X msg 221 48 font font/VeraMono.ttf;
#X obj 221 12 loadbang;
#X msg 234 73 text 60;
#X obj 221 128 s topic-disp;
#X obj 60 150 r topic-disp;
#X msg 242 103 justify center center;
#X obj 79 183 r win-y;
#X obj 76 212 f;
#X obj 75 234 / 10;
#X obj 43 74 translateXYZ 0 0 0;
#X connect 0 0 12 0;
#X connect 1 0 2 0;
#X connect 3 0 6 0;
#X connect 4 0 3 0;
#X connect 4 0 5 0;
#X connect 4 0 8 0;
#X connect 5 0 6 0;
#X connect 7 0 2 0;
#X connect 8 0 6 0;
#X connect 9 0 10 0;
#X connect 10 0 11 0;
#X connect 11 0 2 1;
#X connect 12 0 1 0;
#X restore 30 96 pd topic-display;
