#N canvas 320 380 960 387 10;
#N canvas 128 130 450 375 data 0;
#X obj 8 9 r panelist_init;
#X floatatom 8 59 5 0 0 0 - - -;
#X text 45 58 < - number of panellists;
#X obj 8 81 s panel_size;
#X obj 235 16 table scores;
#X obj 8 35 f;
#X obj 35 35 + 1;
#X obj 25 158 r buzz_no;
#X msg 25 322 \; \$1-buzz-order \$2;
#X obj 52 249 f;
#X obj 83 249 + 1;
#X obj 25 297 pack f f;
#X obj 25 186 t f b;
#X obj 78 190 r timer-start;
#X msg 78 216 0;
#X obj 198 197 until;
#X obj 198 224 f;
#X obj 227 224 + 1;
#X obj 198 145 t b b;
#X msg 243 199 1;
#X msg 198 172 3;
#X msg 196 250 \; \$1-buzz-order 0;
#X obj 197 122 r timer-start;
#X floatatom 86 272 5 0 0 0 - - -;
#X obj 86 297 s buzz_count;
#X connect 0 0 5 0;
#X connect 1 0 3 0;
#X connect 5 0 6 0;
#X connect 5 0 1 0;
#X connect 6 0 5 1;
#X connect 7 0 12 0;
#X connect 9 0 10 0;
#X connect 9 0 11 1;
#X connect 9 0 23 0;
#X connect 10 0 9 1;
#X connect 11 0 8 0;
#X connect 12 0 11 0;
#X connect 12 1 9 0;
#X connect 13 0 14 0;
#X connect 14 0 9 0;
#X connect 15 0 16 0;
#X connect 16 0 17 0;
#X connect 16 0 21 0;
#X connect 17 0 16 1;
#X connect 18 0 20 0;
#X connect 18 1 19 0;
#X connect 19 0 16 0;
#X connect 20 0 15 0;
#X connect 22 0 18 0;
#X connect 23 0 24 0;
#X restore 8 7 pd data;
#X obj 170 68 s 1-buzz;
#X obj 170 34 bng 15 250 50 0 empty empty empty 17 7 0 10 -262144 -1
-1;
#X obj 693 51 s game-init;
#X obj 693 21 bng 15 250 50 0 empty empty empty 17 7 0 10 -262144 -1
-1;
#X obj 7 34 stop-watch;
#X obj 775 53 s timer-start;
#X obj 777 24 bng 15 250 50 0 empty empty empty 17 7 0 10 -262144 -1
-1;
#X obj 870 51 s timer-stop;
#X obj 873 23 bng 15 250 50 0 empty empty empty 17 7 0 10 -262144 -1
-1;
#X obj 234 63 s 2-buzz;
#X obj 230 38 bng 15 250 50 0 empty empty empty 17 7 0 10 -262144 -1
-1;
#X obj 296 43 bng 15 250 50 0 empty empty empty 17 7 0 10 -262144 -1
-1;
#X obj 360 42 bng 15 250 50 0 empty empty empty 17 7 0 10 -262144 -1
-1;
#X obj 298 65 s 3-buzz;
#X obj 362 64 s 4-buzz;
#N canvas 1 147 595 360 keys 0;
#X obj 8 7 key;
#X obj 8 47 s 1-up;
#X obj 8 27 sel 113;
#X obj 57 7 key;
#X obj 57 27 sel 119;
#X obj 57 47 s 2-up;
#X obj 106 7 key;
#X obj 155 7 key;
#X obj 106 47 s 3-up;
#X obj 155 47 s 4-up;
#X obj 106 27 sel 101;
#X obj 155 27 sel 114;
#X obj 8 67 key;
#X obj 8 107 s 1-down;
#X obj 8 87 sel 97;
#X obj 63 67 key;
#X obj 63 87 sel 115;
#X obj 63 107 s 2-down;
#X obj 118 67 key;
#X obj 173 67 key;
#X obj 118 107 s 3-down;
#X obj 173 107 s 4-down;
#X obj 118 87 sel 100;
#X obj 173 87 sel 102;
#X text 219 8 <-- score up;
#X text 229 68 <-- score down;
#X obj 8 168 key;
#X obj 8 188 sel 32;
#X obj 8 208 s timer-start;
#X text 10 148 space;
#X text 34 3 q;
#X text 87 6 w;
#X text 136 7 e;
#X text 182 5 r;
#X text 33 66 a;
#X text 91 65 s;
#X text 147 66 d;
#X text 203 68 f;
#X obj 101 167 key;
#X text 104 142 enter;
#X obj 101 186 sel 10;
#X obj 101 207 s game-init;
#X text 180 141 esc;
#X obj 178 166 key;
#X obj 178 185 sel 27;
#X obj 178 206 s file-load;
#X obj 257 169 key;
#X obj 257 209 s next-topic;
#X obj 258 188 sel 112;
#X text 259 144 p;
#X obj 108 237 s timer-stop;
#X obj 269 229 s game-init;
#X obj 282 249 s timer-stop;
#X connect 0 0 2 0;
#X connect 2 0 1 0;
#X connect 3 0 4 0;
#X connect 4 0 5 0;
#X connect 6 0 10 0;
#X connect 7 0 11 0;
#X connect 10 0 8 0;
#X connect 11 0 9 0;
#X connect 12 0 14 0;
#X connect 14 0 13 0;
#X connect 15 0 16 0;
#X connect 16 0 17 0;
#X connect 18 0 22 0;
#X connect 19 0 23 0;
#X connect 22 0 20 0;
#X connect 23 0 21 0;
#X connect 26 0 27 0;
#X connect 27 0 28 0;
#X connect 38 0 40 0;
#X connect 40 0 41 0;
#X connect 40 0 50 0;
#X connect 43 0 44 0;
#X connect 44 0 45 0;
#X connect 46 0 48 0;
#X connect 48 0 47 0;
#X connect 48 0 51 0;
#X connect 48 0 52 0;
#X restore 64 10 pd keys;
#X obj 4 96 topic;
#X obj 452 56 s file-load;
#X obj 530 52 s next-topic;
#X obj 449 24 bng 15 250 50 0 empty empty empty 17 7 0 10 -262144 -1
-1;
#X obj 528 22 bng 15 250 50 0 empty empty empty 17 7 0 10 -262144 -1
-1;
#X obj 16 274 s start-gem;
#X obj 16 253 bng 15 250 50 0 empty empty empty 17 7 0 10 -262144 -1
-1;
#X obj 95 274 s end-gem;
#X obj 95 249 bng 15 250 50 0 empty empty empty 17 7 0 10 -262144 -1
-1;
#X obj 121 12 display;
#X obj 422 166 panellist 3 Rob Miller;
#X obj 5 165 panellist 1 Sam Phippen;
#X obj 629 166 panellist 4 Phil Nash;
#X obj 214 166 panellist 2 Kinsey Durham Ann;
#X msg 839 195 loadbang;
#X obj 839 221 s main.pd;
#X obj 176 12 controllers;
#X obj 719 250 bng 15 250 50 0 empty empty empty 17 7 0 10 -262144
-1 -1;
#X obj 746 277 bng 15 250 50 0 empty empty empty 17 7 0 10 -262144
-1 -1;
#X text 746 249 Start;
#X text 768 275 Fade;
#X obj 719 303 theme;
#X obj 558 29 s practise-file-load;
#X obj 559 6 bng 15 250 50 0 empty empty empty 17 7 0 10 -262144 -1
-1;
#X connect 2 0 1 0;
#X connect 4 0 3 0;
#X connect 7 0 6 0;
#X connect 9 0 8 0;
#X connect 11 0 10 0;
#X connect 12 0 14 0;
#X connect 13 0 15 0;
#X connect 20 0 18 0;
#X connect 21 0 19 0;
#X connect 23 0 22 0;
#X connect 25 0 24 0;
#X connect 31 0 32 0;
#X connect 34 0 38 0;
#X connect 35 0 38 1;
#X connect 40 0 39 0;
