#N canvas 88 88 682 300 10;
#X floatatom 104 143 15 0 0 0 - #1-score -;
#X floatatom 206 143 3 0 0 0 - #1-buzz-order -;
#X obj 103 120 cnv 15 200 20 empty \$0-canvas Frank Johnson 5 10 0
14 -233017 -66577 0;
#N canvas 8 382 450 300 init 0;
#X obj 19 31 loadbang;
#X obj 19 49 t b b;
#X obj 19 74 symbol \$2;
#X obj 82 75 symbol \$3;
#X obj 19 164 s \$0-canvas;
#X msg 19 139 label \$1;
#X obj 19 97 pack s s;
#X obj 174 33 loadbang;
#X obj 174 57 s panellist_init;
#X msg 284 57 0;
#X obj 284 77 s \$0-score-init;
#X obj 81 30 bng 15 250 50 0 empty empty empty 17 7 0 10 -262144 -1
-1;
#X obj 19 117 l2s;
#X obj 27 267 s \$0-canvas;
#X msg 26 214 label_pos 5 10;
#X msg 34 234 vis_size 200 20;
#X obj 26 189 loadbang;
#X connect 0 0 1 0;
#X connect 1 0 2 0;
#X connect 1 1 3 0;
#X connect 2 0 6 0;
#X connect 3 0 6 1;
#X connect 5 0 4 0;
#X connect 6 0 12 0;
#X connect 7 0 8 0;
#X connect 7 0 9 0;
#X connect 9 0 10 0;
#X connect 11 0 1 0;
#X connect 12 0 5 0;
#X connect 14 0 13 0;
#X connect 15 0 13 0;
#X connect 16 0 14 0;
#X connect 16 0 15 0;
#X restore 0 -10 pd init;
#N canvas 247 257 450 371 score 1;
#X obj 33 11 r \$1-up;
#X obj 37 170 f;
#X obj 69 171 +;
#X obj 143 18 r \$1-down;
#X obj 151 153 r \$0-score-init;
#X msg 76 57 1;
#X msg 185 64 -1;
#X obj 37 32 t b b b;
#X obj 143 39 t b b b;
#X obj 282 12 r \$0-score;
#X obj 363 56 \$1;
#X obj 363 35 loadbang;
#X obj 282 79 tabwrite scores;
#X obj 37 202 s \$1-score;
#X connect 0 0 7 0;
#X connect 1 0 2 0;
#X connect 1 0 13 0;
#X connect 2 0 1 1;
#X connect 3 0 8 0;
#X connect 4 0 1 0;
#X connect 4 0 2 0;
#X connect 5 0 2 1;
#X connect 6 0 2 1;
#X connect 7 0 1 0;
#X connect 7 1 2 0;
#X connect 7 2 5 0;
#X connect 8 0 1 0;
#X connect 8 1 2 0;
#X connect 8 2 6 0;
#X connect 9 0 12 0;
#X connect 10 0 12 1;
#X connect 11 0 10 0;
#X restore 0 21 pd score;
#N canvas 124 365 450 300 buzz-sound 0;
#X obj 53 217 dac~;
#X obj 54 192 *~ 0.2;
#X obj 55 168 *~;
#X obj 181 144 line~;
#X obj 216 68 del 100;
#X msg 181 92 1;
#X msg 216 93 0;
#X msg 181 121 \$1 10;
#X obj 181 40 sel \$1;
#X obj 182 19 r buzz_no;
#X obj 33 7 loadbang;
#X obj 34 33 \$1;
#X obj 36 57 * 220;
#X obj 35 77 phasor~ 440;
#X connect 1 0 0 0;
#X connect 1 0 0 1;
#X connect 2 0 1 0;
#X connect 3 0 2 1;
#X connect 4 0 6 0;
#X connect 5 0 7 0;
#X connect 6 0 7 0;
#X connect 7 0 3 0;
#X connect 8 0 5 0;
#X connect 8 0 4 0;
#X connect 9 0 8 0;
#X connect 10 0 11 0;
#X connect 11 0 12 0;
#X connect 12 0 13 0;
#X connect 13 0 2 0;
#X restore 2 47 pd buzz-sound;
#N canvas 613 306 569 300 buzz-timer 0;
#X obj 41 36 r \$1-buzz;
#X obj 40 71 s timer-stop;
#X obj 306 4 r \$1-buzz;
#X obj 333 51 \$1;
#X obj 306 128 s buzz_no;
#X obj 306 99 spigot;
#X obj 414 52 r timer-start;
#X msg 414 72 1;
#X obj 306 29 t b b;
#X msg 306 51 0;
#X obj 34 159 r \$1-buzz-order;
#X obj 34 202 s \$1-first;
#X obj 34 180 == 1;
#X connect 0 0 1 0;
#X connect 2 0 8 0;
#X connect 3 0 5 0;
#X connect 5 0 4 0;
#X connect 6 0 7 0;
#X connect 7 0 5 1;
#X connect 8 0 9 0;
#X connect 8 1 3 0;
#X connect 9 0 5 1;
#X connect 10 0 12 0;
#X connect 12 0 11 0;
#X restore 1 70 pd buzz-timer;
#X obj 229 143 tgl 10 0 empty \$1-first empty 17 7 0 10 -262144 -1
-1 0 1;
#X obj 239 143 tgl 10 0 empty \$1-first empty 17 7 0 10 -262144 -1
-1 0 1;
#X obj 249 143 tgl 10 0 empty \$1-first empty 17 7 0 10 -262144 -1
-1 0 1;
#X obj 259 143 tgl 10 0 empty \$1-first empty 17 7 0 10 -262144 -1
-1 0 1;
#X obj 269 143 tgl 10 0 empty \$1-first empty 17 7 0 10 -262144 -1
-1 0 1;
#X obj 279 143 tgl 10 0 empty \$1-first empty 17 7 0 10 -262144 -1
-1 0 1;
#X obj 289 143 tgl 10 0 empty \$1-first empty 17 7 0 10 -262144 -1
-1 0 1;
#X obj 229 153 tgl 10 0 empty \$1-first empty 17 7 0 10 -262144 -1
-1 0 1;
#X obj 239 153 tgl 10 0 empty \$1-first empty 17 7 0 10 -262144 -1
-1 0 1;
#X obj 249 153 tgl 10 0 empty \$1-first empty 17 7 0 10 -262144 -1
-1 0 1;
#X obj 259 153 tgl 10 0 empty \$1-first empty 17 7 0 10 -262144 -1
-1 0 1;
#X obj 269 153 tgl 10 0 empty \$1-first empty 17 7 0 10 -262144 -1
-1 0 1;
#X obj 279 153 tgl 10 0 empty \$1-first empty 17 7 0 10 -262144 -1
-1 0 1;
#X obj 289 153 tgl 10 0 empty \$1-first empty 17 7 0 10 -262144 -1
-1 0 1;
#X obj 98 -2 panellist-display \$1 \$2 \$3;
#X coords 0 -1 1 1 205 65 1 100 100;
