#N canvas 468 233 685 455 10;
#X obj 36 104 gemhead;
#X obj 36 209 circle 1 20;
#X obj 36 179 translateXYZ 0 -2 0;
#X obj 73 149 r \$0-x;
#X obj 598 223 s \$0-x;
#X obj 598 25 \$1;
#X obj 598 1 loadbang;
#X obj 578 2 bng 15 250 50 0 empty empty empty 17 7 0 10 -262144 -1
-1;
#X obj 598 48 - 1;
#X obj 598 74 / 4;
#X obj 598 159 * 14;
#X text 577 -28 generates;
#X text 560 -16 center position;
#X obj 36 128 colourRGB 1 0 0;
#N canvas 491 127 450 300 first-name-display 0;
#X obj 46 238 text2d;
#X obj 79 178 r win-y;
#X obj 79 198 f;
#X msg 374 110 text \$1;
#X obj 374 34 bng 15 250 50 0 empty empty empty 17 7 0 10 -262144 -1
-1;
#X obj 374 14 loadbang;
#X obj 283 158 loadbang;
#X msg 304 249 justify center center;
#X obj 46 20 gemhead;
#X obj 93 96 r \$0-x;
#X obj 111 197 bng 15 250 50 0 empty empty empty 17 7 0 10 -262144
-1 -1;
#X obj 46 39 alpha;
#X obj 46 62 colourRGB 1 1 1;
#X obj 75 156 r \$0-first;
#X obj 284 273 s \$0-first;
#X obj 374 134 s \$0-first;
#X obj 374 90 symbol \$2;
#X obj 79 218 / 15;
#X msg 283 194 font font/VeraMono.ttf;
#X obj 47 133 translateXYZ 0 -1 0.0001;
#X connect 1 0 2 0;
#X connect 2 0 17 0;
#X connect 3 0 15 0;
#X connect 4 0 16 0;
#X connect 5 0 16 0;
#X connect 6 0 7 0;
#X connect 6 0 18 0;
#X connect 7 0 14 0;
#X connect 8 0 11 0;
#X connect 9 0 19 1;
#X connect 10 0 2 0;
#X connect 11 0 12 0;
#X connect 12 0 19 0;
#X connect 13 0 0 0;
#X connect 16 0 3 0;
#X connect 17 0 0 1;
#X connect 18 0 14 0;
#X connect 19 0 0 0;
#X restore 204 108 pd first-name-display;
#N canvas 58 416 450 300 last-name-display 0;
#X obj 46 238 text2d;
#X obj 79 178 r win-y;
#X obj 79 198 f;
#X msg 374 110 text \$1;
#X obj 374 34 bng 15 250 50 0 empty empty empty 17 7 0 10 -262144 -1
-1;
#X obj 374 14 loadbang;
#X obj 283 158 loadbang;
#X msg 304 249 justify center center;
#X obj 46 20 gemhead;
#X obj 93 96 r \$0-x;
#X obj 111 197 bng 15 250 50 0 empty empty empty 17 7 0 10 -262144
-1 -1;
#X obj 46 39 alpha;
#X obj 46 62 colourRGB 1 1 1;
#X obj 284 273 s \$0-last;
#X obj 374 134 s \$0-last;
#X obj 75 156 r \$0-last;
#X obj 46 133 translateXYZ 0 -2 0.0001;
#X obj 374 90 symbol \$3;
#X obj 78 219 / 15;
#X msg 277 208 font font/VeraMono.ttf;
#X connect 1 0 2 0;
#X connect 2 0 18 0;
#X connect 3 0 14 0;
#X connect 4 0 17 0;
#X connect 5 0 17 0;
#X connect 6 0 7 0;
#X connect 6 0 19 0;
#X connect 7 0 13 0;
#X connect 8 0 11 0;
#X connect 9 0 16 1;
#X connect 10 0 2 0;
#X connect 11 0 12 0;
#X connect 12 0 16 0;
#X connect 15 0 0 0;
#X connect 16 0 0 0;
#X connect 17 0 3 0;
#X connect 18 0 0 1;
#X connect 19 0 13 0;
#X restore 208 177 pd last-name-display;
#X obj 37 51 r \$1-buzz-order;
#X obj 37 73 > 0;
#N canvas 43 379 521 353 score 0;
#X obj 56 248 text2d;
#X obj 89 188 r win-y;
#X obj 89 208 f;
#X msg 384 120 text \$1;
#X msg 293 204 font font/VeraMono.ttf;
#X obj 293 168 loadbang;
#X msg 314 259 justify center center;
#X obj 56 30 gemhead;
#X obj 103 106 r \$0-x;
#X obj 121 207 bng 15 250 50 0 empty empty empty 17 7 0 10 -262144
-1 -1;
#X obj 56 49 alpha;
#X obj 56 72 colourRGB 1 1 1;
#X obj 85 166 r \$0-score;
#X obj 56 143 translateXYZ 0 -3 0.0001;
#X obj 384 144 s \$0-score;
#X obj 294 283 s \$0-score;
#X obj 90 228 / 5;
#X obj 382 94 r \$1-score;
#X msg 320 235 text 0;
#X connect 1 0 2 0;
#X connect 2 0 16 0;
#X connect 3 0 14 0;
#X connect 4 0 15 0;
#X connect 5 0 4 0;
#X connect 5 0 6 0;
#X connect 5 0 18 0;
#X connect 6 0 15 0;
#X connect 7 0 10 0;
#X connect 8 0 13 1;
#X connect 9 0 2 0;
#X connect 10 0 11 0;
#X connect 11 0 13 0;
#X connect 12 0 0 0;
#X connect 13 0 0 0;
#X connect 16 0 0 1;
#X connect 17 0 3 0;
#X connect 18 0 15 0;
#X restore 206 204 pd score;
#X obj 598 99 * -1;
#X obj 598 124 + 1;
#X obj 598 183 - 8.7;
#N canvas 685 392 450 316 middle-name-display 0;
#X obj 109 176 r win-y;
#X obj 109 196 f;
#X msg 282 98 text \$1;
#X obj 283 42 bng 15 250 50 0 empty empty empty 17 7 0 10 -262144 -1
-1;
#X obj 283 22 loadbang;
#X obj 283 158 loadbang;
#X msg 304 249 justify center center;
#X obj 76 18 gemhead;
#X obj 123 94 r \$0-x;
#X obj 141 195 bng 15 250 50 0 empty empty empty 17 7 0 10 -262144
-1 -1;
#X obj 109 216 / 15;
#X msg 283 194 font font/VeraMono.ttf;
#X obj 282 78 symbol \$4;
#X obj 76 131 translateXYZ 0 -1.5 0.0001;
#X obj 75 237 text2d;
#X obj 74 40 alpha;
#X obj 76 60 colourRGB 1 1 1 1;
#X obj 279 125 s \$0-mid;
#X obj 284 273 s \$0-mid;
#X obj 91 154 r \$0-mid;
#X connect 0 0 1 0;
#X connect 1 0 10 0;
#X connect 2 0 17 0;
#X connect 3 0 12 0;
#X connect 4 0 12 0;
#X connect 5 0 6 0;
#X connect 5 0 11 0;
#X connect 6 0 18 0;
#X connect 7 0 15 0;
#X connect 8 0 13 1;
#X connect 9 0 1 0;
#X connect 10 0 14 1;
#X connect 11 0 18 0;
#X connect 12 0 2 0;
#X connect 13 0 14 0;
#X connect 15 0 16 0;
#X connect 16 0 13 0;
#X connect 19 0 14 0;
#X restore 206 139 pd middle-name-display;
#X connect 0 0 13 0;
#X connect 2 0 1 0;
#X connect 3 0 2 1;
#X connect 5 0 8 0;
#X connect 6 0 5 0;
#X connect 7 0 5 0;
#X connect 8 0 9 0;
#X connect 9 0 19 0;
#X connect 10 0 21 0;
#X connect 13 0 2 0;
#X connect 16 0 17 0;
#X connect 17 0 0 0;
#X connect 19 0 20 0;
#X connect 20 0 10 0;
#X connect 21 0 4 0;
