#N canvas 247 180 579 395 10;
#X obj 101 102 cnv 15 140 50 empty sw-disp 60.0 0 25 0 60 -233017 -66577
0;
#N canvas 339 216 620 374 timer 1;
#X obj 83 -749 f;
#X obj 164 -836 f;
#X obj 83 -780 sel 0;
#X obj 110 -749 - 1;
#X obj 164 -816 % 10;
#X floatatom 83 -710 5 0 0 0 - - -;
#X floatatom 164 -715 5 0 0 0 - - -;
#X obj 199 -837 - 1;
#X obj 164 -889 metro 100;
#X obj 164 -788 + 9;
#X obj 83 -691 s sec;
#X obj 164 -696 s tenth;
#X obj 21 -808 r game-init;
#X obj 120 -986 r timer-start;
#X msg 120 -965 1;
#X obj 158 -964 r timer-stop;
#X msg 159 -942 0;
#X obj 296 -987 r sec;
#X obj 242 -863 s timer-stop;
#X obj 241 -986 r tenth;
#X obj 242 -913 spigot;
#X obj 242 -889 sel 1;
#X floatatom 293 -894 5 0 0 0 - - -;
#X obj 241 -959 == 0;
#X obj 257 -827 r game-init;
#X obj 347 -841 s round-end;
#X msg 257 -800 -9;
#X obj 374 -988 r game-init;
#X obj 374 -966 t b b;
#X msg 401 -945 0;
#X obj 374 -925 del 1;
#X obj 347 -864 spigot;
#X msg 374 -904 1;
#X obj 296 -960 <= 0;
#X msg 21 -781 60;
#X connect 0 0 3 0;
#X connect 0 0 5 0;
#X connect 1 0 4 0;
#X connect 1 0 7 0;
#X connect 2 0 0 0;
#X connect 3 0 0 1;
#X connect 4 0 2 0;
#X connect 4 0 9 0;
#X connect 5 0 10 0;
#X connect 6 0 11 0;
#X connect 7 0 1 1;
#X connect 8 0 1 0;
#X connect 9 0 6 0;
#X connect 12 0 34 0;
#X connect 13 0 14 0;
#X connect 14 0 8 0;
#X connect 15 0 16 0;
#X connect 16 0 8 0;
#X connect 17 0 33 0;
#X connect 19 0 23 0;
#X connect 20 0 21 0;
#X connect 20 0 22 0;
#X connect 21 0 18 0;
#X connect 21 0 31 0;
#X connect 23 0 20 0;
#X connect 24 0 26 0;
#X connect 26 0 1 0;
#X connect 27 0 28 0;
#X connect 28 0 30 0;
#X connect 28 1 29 0;
#X connect 29 0 31 1;
#X connect 30 0 32 0;
#X connect 31 0 25 0;
#X connect 32 0 31 1;
#X connect 33 0 20 1;
#X connect 34 0 0 0;
#X restore 384 42 pd timer;
#X obj 45 186 r sec;
#X obj 89 187 r tenth;
#X msg 44 316 label \$1;
#X obj 44 270 pack f f;
#X obj 45 251 f;
#X obj 64 215 b;
#X obj 44 290 zexy/makesymbol %s.%s;
#X obj 43 339 s sw-disp;
#N canvas 58 224 450 300 round-end-sound 0;
#X obj 25 68 soundfiler;
#X obj 84 18 table end-sample;
#X obj 25 18 loadbang;
#X msg 25 42 read -resize sound/air-horn.wav end-sample;
#X obj 24 122 tabplay~ end-sample;
#X obj 24 177 dac~;
#X obj 24 145 *~ 0.4;
#X obj 24 99 r round-end;
#X connect 2 0 3 0;
#X connect 3 0 0 0;
#X connect 4 0 6 0;
#X connect 6 0 5 0;
#X connect 6 0 5 1;
#X connect 7 0 4 0;
#X restore 386 73 pd round-end-sound;
#X obj 122 340 s timer-disp;
#X connect 2 0 6 0;
#X connect 3 0 5 1;
#X connect 3 0 7 0;
#X connect 4 0 9 0;
#X connect 5 0 8 0;
#X connect 6 0 5 0;
#X connect 7 0 6 0;
#X connect 8 0 4 0;
#X connect 8 0 11 0;
#X coords 0 -1 1 1 145 55 1 100 100;
