#N canvas 348 403 575 300 10;
#X obj 41 48 inlet;
#X obj 156 136 inlet;
#X obj 196 34 table theme;
#X obj 295 32 loadbang;
#X obj 297 94 soundfiler;
#X msg 295 59 read -resize sound/theme.wav theme;
#X obj 43 107 tabplay~ theme;
#X obj 48 213 *~;
#X obj 47 251 dac~;
#X obj 64 191 line~;
#X msg 66 145 1;
#X obj 49 76 t b b;
#X msg 154 161 0 4000;
#X connect 0 0 6 0;
#X connect 0 0 11 0;
#X connect 1 0 12 0;
#X connect 3 0 5 0;
#X connect 5 0 4 0;
#X connect 6 0 7 0;
#X connect 7 0 8 0;
#X connect 7 0 8 1;
#X connect 9 0 7 1;
#X connect 10 0 9 0;
#X connect 11 0 6 0;
#X connect 11 1 10 0;
#X connect 12 0 9 0;
